PathFileType	4	(X/Y/Z)	/home/abdul/Desktop/myosuite/custom_workspace/IK/output/S13_12_1.trc
DataRate	CameraRate	NumFrames	NumMarkers	Units	OrigDataRate	OrigDataStartFrame	OrigNumFrames
200.0	200.0	56	3	mm	200.0	1313	1500
Frame#	Time	V_Shoulder			V_Elbow			V_Wrist		
		X1	Y1	Z1	X2	Y2	Z2	X3	Y3	Z3

1313	6.56	-89.73042625100948	618.231205822763	331.0235802407594	-243.09714573811294	532.5125347472562	18.414459180342746	-265.03294071321704	264.1348760943036	45.039567800302436
1314	6.565	-89.7304092295965	618.2404483370169	331.0096294011425	-243.0903602171102	532.5200749788264	18.4000886401319	-265.0463385797939	264.13836106183896	45.0121124819198
1315	6.57	-89.73072435187099	618.2494530690273	330.99566265749985	-243.0838659060356	532.5272836022746	18.38600223972997	-265.05940535214484	264.1419184384465	44.98512105024706
1316	6.575	-89.73137103066404	618.25822650902	330.98168073999915	-243.0776608198844	532.5341827562759	18.372169183536222	-265.07215859329347	264.14555550113386	44.95858496907542
1317	6.58	-89.73234838516169	618.266775223296	330.9676843831919	-243.0717432569162	532.5407947715664	18.358558861051304	-265.08461585393025	264.14927913517033	44.93249496529607
1318	6.585	-89.73365524976715	618.2751058414864	330.95367432309814	-243.06611180045175	532.5471420614107	18.345140984673165	-265.09679461194	264.15309580435587	44.906841128542354
1319	6.59	-89.73529018300987	618.2832250439178	330.9396512943861	-243.06076531651956	532.5532470166401	18.33188572170488	-265.1087122156223	264.1570115244661	44.88161300678596
1320	6.595	-89.73725147648486	618.291139549111	330.9256160276464	-243.05570294750075	532.5591319055175	18.318763820029197	-265.1203858305873	264.16103183989435	44.85679969765671
1321	6.6	-89.73953716380726	618.2988561014348	330.91156924675954	-243.05092410194328	532.5648187786489	18.305746726947874	-265.13183239029894	264.1651618034974	44.83238993529116
1322	6.605	-89.74214502956636	618.3063814589359	330.8975116663544	-243.04642844073712	532.5703293791354	18.292806700729205	-265.1430685502251	264.16940595963507	44.80837217254992
1323	6.61	-89.74507261826426	618.3137223813661	330.88344398935703	-243.04221585986164	532.575685058124	18.279916914454205	-265.1541106455468	264.17376833038026	44.78473465847706
1324	6.615	-89.74831724322479	618.320885618425	330.869366904627	-243.03828646993426	532.5809066958952	18.267051551800268	-265.1649746523677	264.1782524048632	44.761465510906746
1325	6.62	-89.75187599545848	618.3278778982391	330.85528108468026	-243.03464057280604	532.5860146285834	18.25418589445108	-265.17567615235856	264.18286113170035	44.73855278415273
1326	6.625	-89.75574575247003	618.3347059160924	330.8411871834961	-243.03127863546325	532.5910285806117	18.241296400871978	-265.18623030076327	264.1875969144447	44.715984531745065
1327	6.63	-89.75992318699498	618.3413763234277	330.8270858344074	-243.02820126150806	532.5959676028843	18.228360776241505	-265.19665179768543	264.19246160998523	44.69374886420594
1328	6.635	-89.76440477565313	618.3478957171329	330.8129776480714	-243.025409160501	532.6008500167598	18.215358033381495	-265.2069548625709	264.1974565298094	44.67183400188162
1329	6.64	-89.76918680750634	618.3542706291291	330.79886321052044	-243.0229031154576	532.6056933638006	18.202268544580054	-265.21715321179374	264.2025824440351	44.6502283228716
1330	6.645	-89.77426539250907	618.3605075162728	330.7847430812901	-243.02068394879825	532.6105143612695	18.189074084253274	-265.22726003925027	264.2078395881065	44.628920406118034
1331	6.65	-89.77963646984044	618.3666127505852	330.7706177916243	-243.01875248705602	532.6153288633213	18.17575786244302	-265.23728799986026	264.2132276720421	44.607899069738934
1332	6.655	-89.78529581610758	618.3725926098219	330.75648784275546	-243.01710952464987	532.6201518278194	18.162304549198506	-265.2472491958733	264.21874589211313	44.587153404707166
1333	6.66	-89.79123905340958	618.3784532683949	330.7423537042591	-243.0157557870325	532.6249972886766	18.148700289939075	-265.2571551658722	264.22439294482405	44.56667280399437
1334	6.665	-89.79746165725312	618.3842007886523	330.72821581248195	-243.01469189352167	532.6298783336135	18.1349327119439	-265.2670168763657	264.2301670430611	44.546446987314084
1335	6.67	-89.80395896431044	618.3898411125317	330.7140745690428	-243.01391832012092	532.6348070871984	18.120990922160992	-265.276844715859	264.23606593426825	44.52646602161205
1336	6.675	-89.81072618001156	618.3953800535897	330.69993033940676	-243.01343536263204	532.6397946990221	18.106865496573256	-265.28664849129086	264.2420869205054	44.506720337463776
1337	6.68	-89.81775838596269	618.4008232894183	330.685783451532	-243.01324310035523	532.6448513368433	18.09254846140212	-265.2964374267239	264.24822688023926	44.48720074154994
1338	6.685	-89.82505054718403	618.4061763544516	330.67163419458967	-243.01334136066575	532.6499861845277	18.078033266470424	-265.30622016417385	264.2544822917148	44.467898425389336
1339	6.69	-89.83259751916017	618.4114446331719	330.6574828177574	-243.01372968474607	532.655207444591	18.06331475108445	-265.31600476646406	264.2608492577515	44.448804970516605
1340	6.695	-89.84039405469692	618.4166333537152	330.64332952908745	-243.0144072947412	532.6605223451427	18.04838910283103	-265.32579872199193	264.26732353180773	44.42991235029852
1341	6.7	-89.84843481057955	618.421747581884	330.629174494452	-243.01537306259343	532.6659371510223	18.03325380971849	-265.33560895129244	264.27390054515456	44.411212928587545
1342	6.705	-89.85671435402777	618.4267922155667	330.6150178365647	-243.0166254807978	532.6714571789056	18.017907606120485	-265.34544181528685	264.28057543500046	44.39269945541522
1343	6.71	-89.86522716894272	618.4317719795666	330.60085963408295	-243.01816263530435	532.6770868161561	18.002350413008543	-265.35530312510286	264.2873430734086	44.37436505993076
1344	6.715	-89.87396766194321	618.4366914208431	330.58669992079246	-243.01998218077634	532.682829543186	17.986583272983022	-265.365198153357	264.29419809684845	44.35620324079191
1345	6.72	-89.88293016818808	618.4415549041614	330.5725386848764	-243.02208131839706	532.6886879590916	17.970608280632366	-265.37513164678705	264.3011349362273	44.338207854215725
1346	6.725	-89.89210895698265	618.4463666081552	330.55837586827334	-243.02445677639707	532.6946638103184	17.954428508767727	-265.38510784012783	264.3081478472455	44.32037309989673
1347	6.73	-89.90149823716752	618.4511305217972	330.5442113661265	-243.02710479345518	532.7007580221143	17.93804793109334	-265.395130471122	264.31523094092654	44.30269350499911
1348	6.735	-89.91109216228915	618.4558504412764	330.53004502632854	-243.0300211051056	532.7069707325224	17.921471341883013	-265.40520279656107	264.32237821417186	44.28516390642723
1349	6.74	-89.9208848355517	618.4605299672811	330.51587664916616	-243.0332009332616	532.7133013286696	17.90470427323946	-265.41532760925287	264.329583580198	44.26777943157677
1350	6.745	-89.93087031455082	618.4651725026814	330.5017059870689	-243.03663897894518	532.7197484851024	17.887752910516085	-265.4255072558136	264.33684089871565	44.250535477765
1351	6.75	-89.9410426157903	618.4697812506108	330.48753274446585	-243.04032941828837	532.7263102039291	17.870624006480078	-265.43574365518595	264.34414400571643	44.23342769053558
1352	6.755	-89.95139571898365	618.474359212939	330.47335657775835	-243.04426590185113	532.7329838565227	17.853324794791533	-265.4460383177834	264.35148674273717	44.21645194102818
1353	6.76	-89.96192357114269	618.4789091891334	330.45917709540964	-243.04844155727594	532.7397662265473	17.83586290336572	-265.4563923651681	264.35886298547905	44.19960430259914
1354	6.765	-89.97262009045637	618.4834337755025	330.4449938581611	-243.05284899527774	532.7466535540723	17.81824626817467	-265.46680655016564	264.36626667166286	44.18288102687332
1355	6.77	-89.98347916996318	618.4879353648154	330.4308063793789	-243.0574803189444	532.7536415805429	17.800483048030333	-265.47728127732876	264.37369182801	44.16627851940255
1356	6.775	-89.99449468102172	618.4924161462923	330.4166141255369	-243.06232713630027	532.7607255943835	17.782581540874105	-265.48781662365946	264.38113259624413	44.14979331509937
1357	6.78	-90.00566047658424	618.4968781059566	330.4024165168439	-243.06738057606415	532.7679004770125	17.764550102077553	-265.49841235950294	264.3885832580159	44.13342205360874
1358	6.785	-90.01697039427779	618.5013230273437	330.3882129280191	-243.07263130651063	532.7751607490545	17.746397065236266	-265.50906796953024	264.39603825866084	44.11716145477413
1359	6.79	-90.02841825930017	618.5057524925579	330.37400268922426	-243.0780695573236	532.7825006165456	17.728130665913305	-265.51978267372704	264.4034922297066	44.10100829434725
1360	6.795	-90.03999788713581	618.5101678836709	330.35978508715834	-243.0836851443102	532.7899140169295	17.709758968760823	-265.53055544830954	264.41094001005536	44.08495938008413
1361	6.8	-90.05170308609979	618.5145703844519	330.3455593663212	-243.08946749682485	532.7973946646553	17.691289798418453	-265.5413850464913	264.4183766657726	44.069011528362836
1362	6.805	-90.0635276597166	618.5189609824225	330.33132473045276	-243.09540568773443	532.8049360961909	17.67273067455516	-265.5522700190257	264.4257975084231	44.053161541451445
1363	6.81	-90.07546540894236	618.5233404712288	330.3170803441539	-243.1014884657398	532.8125317142772	17.65408875138752	-265.56320873445287	264.4331981119027	44.03740618554709
1364	6.815	-90.08751013423866	618.5277094533191	330.3028253346957	-243.10770428985234	532.8201748312568	17.63537076197224	-265.57419939898307	264.4405743277201	44.02174216970016
1365	6.82	-90.09965563750698	618.5320683429222	330.2885587940232	-243.11404136581092	532.8278587113189	17.61658296753456	-265.5852400759482	264.44792229869495	44.006166125729905
1366	6.825	-90.11189572389351	618.5364173693162	330.27427978095915	-243.12048768421164	532.8355766115096	17.597731112056596	-265.5963287047605	264.45523847104073	43.99067458923096
1367	6.83	-90.12422420347377	618.5407565803779	330.25998732361336	-243.12703106011264	532.8433218213714	17.57882038231198	-265.60746311931547	264.4625196048143	43.97526398176248
1368	6.835	-90.1366348928276	618.5450858464054	330.2456804220033	-243.1336591738652	532.8510877010774	17.559855373494532	-265.6186410657833	264.4697627827172	43.95993059430464
